<svg width="143" height="200" viewBox="0 0 143 200" fill="none" xmlns="http://www.w3.org/2000/svg">
<path d="M143 11.8722C143 5.31957 137.713 0 131.186 0C129.917 0 128.704 0.176146 127.554 0.507297C126.551 0.796175 125.696 1.25415 124.013 2.13487C122.821 2.7549 121.86 3.29744 121.208 3.67087L7.37613 67.9073C2.81865 70.5142 0 75.3758 0 80.6461V170.353C0 181.591 12.0668 188.644 21.7918 183.092C53.5821 164.921 115.83 130.009 120.332 127.479C120.493 127.388 121.517 126.845 122.968 126C124.286 125.225 124.56 125.013 125.31 124.675C126.425 124.175 127.35 123.949 127.981 123.802C128.164 123.759 129.776 123.386 131.186 123.358C134.944 123.28 138.12 125.619 138.365 125.803C141.927 128.494 142.804 132.299 143 133.278V11.8792V11.8722Z" fill="white"/>
<path d="M135.623 146.912L45.2098 198.064C35.4918 203.616 23.418 196.563 23.418 185.325C26.7134 164.688 30.0018 146.51 32.9747 131.179C34.5663 122.956 36.3542 114.107 41.2623 103.298C42.5384 100.487 46.6401 91.7926 54.2336 81.9356C54.2336 81.9356 70.6476 60.622 117.625 33.7776C118.326 33.376 119.034 32.9744 119.735 32.5728L121.194 31.7414C122.021 31.2693 130.827 26.2316 137.53 22.3916C138.428 21.8139 139.886 20.7077 141.085 18.8405C142.67 16.3745 142.929 13.9649 142.971 12.8375C142.971 18.4812 142.978 31.4736 142.978 37.1173C142.978 37.7232 142.978 43.8672 142.978 44.4731V134.18C142.978 139.45 140.167 144.312 135.602 146.919L135.623 146.912Z" fill="white"/>
<path opacity="0.69" d="M143 11.8722C143 5.31957 137.713 0 131.186 0C129.917 0 128.704 0.176146 127.554 0.507297C126.551 0.796175 125.696 1.25415 124.013 2.13487C122.821 2.7549 121.86 3.29744 121.208 3.67087L7.37613 67.9073C2.81865 70.5142 0 75.3758 0 80.6461V170.353C0 181.591 12.0668 188.644 21.7918 183.092C53.5821 164.921 115.83 130.009 120.332 127.479C120.493 127.388 121.517 126.845 122.968 126C124.286 125.225 124.56 125.013 125.31 124.675C126.425 124.175 127.35 123.949 127.981 123.802C128.164 123.759 129.776 123.386 131.186 123.358C134.944 123.28 138.12 125.619 138.365 125.803C141.927 128.494 142.804 132.299 143 133.278V11.8792V11.8722Z" fill="url(#paint0_linear_9182_87212)"/>
<path d="M135.623 146.912L45.2098 198.064C35.4918 203.616 23.418 196.563 23.418 185.325C26.7134 164.688 30.0018 146.51 32.9747 131.179C34.5663 122.956 36.3542 114.107 41.2623 103.298C42.5384 100.487 46.6401 91.7926 54.2336 81.9356C54.2336 81.9356 70.6476 60.622 117.625 33.7776C118.326 33.376 119.034 32.9744 119.735 32.5728L121.194 31.7414C122.021 31.2693 130.827 26.2316 137.53 22.3916C138.428 21.8139 139.886 20.7077 141.085 18.8405C142.67 16.3745 142.929 13.9649 142.971 12.8375C142.971 18.4812 142.978 31.4736 142.978 37.1173C142.978 37.7232 142.978 43.8672 142.978 44.4731V134.18C142.978 139.45 140.167 144.312 135.602 146.919L135.623 146.912Z" fill="url(#paint1_linear_9182_87212)"/>
<defs>
<linearGradient id="paint0_linear_9182_87212" x1="28.5509" y1="193.52" x2="125.635" y2="-4.07238" gradientUnits="userSpaceOnUse">
<stop stop-color="#37A07F"/>
<stop offset="0.45" stop-color="#ABB056"/>
<stop offset="0.51" stop-color="#BAB252"/>
<stop offset="0.82" stop-color="#E0C55B"/>
<stop offset="1" stop-color="#F3CE60"/>
</linearGradient>
<linearGradient id="paint1_linear_9182_87212" x1="106.589" y1="160.017" x2="59.2067" y2="40.6007" gradientUnits="userSpaceOnUse">
<stop stop-color="#F3B278" stop-opacity="0.7"/>
<stop offset="0.4" stop-color="#DE7A82" stop-opacity="0.8"/>
<stop offset="0.78" stop-color="#A37FC5" stop-opacity="0.93"/>
<stop offset="1" stop-color="#8583E9"/>
</linearGradient>
</defs>
</svg>
